<svg width="1372" height="1302" viewBox="0 0 1372 1302" fill="none" xmlns="http://www.w3.org/2000/svg">
<path d="M595.937 657.229C596.828 656.032 597.807 655.646 598.225 656.317C599.68 658.652 603.48 654.807 604.436 650.006C604.982 647.225 604.756 645.472 603.901 646.005C603.045 646.539 602.39 646.209 602.368 645.195C602.331 642.714 600.741 644.283 597.349 650.121C594.157 655.61 593.084 660.997 595.945 657.192L595.937 657.229ZM566.548 720.971C563.089 718.408 562.974 717.966 565.238 715.624C566.386 714.427 567.302 714.145 567.283 714.991C567.277 720.131 572.583 707.579 570.917 707.172C569.641 706.876 571.007 702.526 574.608 695.53C577.969 688.973 579.525 687.554 579.034 691.455C578.734 693.857 578.89 693.953 580.229 692.187C581.404 690.621 581.891 690.734 582.265 692.62C582.847 695.821 573.798 712.567 572.781 713.201C572.411 713.432 571.351 715.698 570.482 718.166C568.937 722.435 568.72 722.602 566.577 721.017L566.548 720.971ZM582.172 683.304C585.355 680.839 587.194 678.536 587.567 676.507C587.901 674.725 587.768 674.615 586.993 675.998C586.312 677.224 585.865 677.021 585.572 675.47C585.019 672.573 586.507 671.356 588.564 673.06C589.441 673.797 589.942 672.747 589.795 670.399C589.625 667.808 590.204 666.677 591.532 667.005C592.612 667.295 593.54 668.321 593.542 669.251C593.559 671.391 588.952 681.357 586.447 685.166C586.357 685.125 586.291 685.07 586.178 685.044C585.188 684.795 584.494 685.741 585.013 686.573C585.027 686.597 585.041 686.62 585.056 686.643C583.386 687.363 580.663 684.437 582.112 683.309L582.172 683.304ZM620.33 613.904C621.087 610.896 621.793 607.599 622.663 604.874C623.945 605.231 624.384 604.957 624.541 604.024C624.771 602.693 623.916 602.456 623.587 602.34C624.392 600.49 625.347 599.188 626.595 598.924C628.155 598.594 628.525 598.107 627.564 597.646C625.35 596.618 638.949 575.687 640.213 574.675C641.886 573.343 644.791 571.564 642.892 570.629C641.44 569.897 644.88 564.96 646.569 565.352C647.169 565.491 649.845 562.058 652.464 557.761C677.866 516.055 705.161 482.125 706.935 479.254C709.203 475.529 726.05 455.944 727.579 454.895C733.238 451.047 698.211 492.299 686.667 510.088C684.175 513.92 681.719 517.345 681.234 517.648C679.893 518.483 672.897 528.943 664.34 542.462C664.327 541.668 662.728 541.059 661.961 542.661C662.174 542.592 660.677 544.103 663.147 543.431C663.505 543.336 663.75 543.215 663.935 543.1C655.116 557.072 644.736 574.103 637.182 587.221C636.409 586.548 635.251 586.338 634.121 587.203C632.566 588.365 632.47 589.035 633.631 590.59C634.024 591.116 634.355 591.391 634.704 591.591C629.405 600.961 626.113 607.475 626.872 607.868C628.509 608.742 626.355 612.91 626.376 610.008C626.399 607.521 623.704 610.614 620.353 613.89L620.33 613.904ZM886.71 593.656C889.675 594.344 888.917 598.38 889.722 603.432C889.505 603.343 889.266 603.267 888.971 603.258C888.368 603.217 887.785 603.003 887.669 602.818C887.309 602.24 886.642 602.045 886.056 602.186C885.206 600.308 884.472 598.358 884.431 596.489C884.377 593.826 884.857 593.206 886.71 593.656ZM884.398 588.195C883.253 587.336 882.098 584.813 881.78 582.604C881.222 578.618 881.268 578.589 883.83 580.588C885.61 581.95 886.425 583.979 886.375 586.835C886.349 589.162 886.113 591.204 885.882 591.348C885.65 591.492 884.683 591.228 883.731 590.73C882.585 590.128 882.753 589.83 884.243 589.801C885.832 589.774 885.876 589.329 884.413 588.218L884.398 588.195ZM1349.85 17.4938C1351.54 20.0025 1354.74 22.1493 1355.64 25.1481C1357.21 30.2384 1345.26 35.7306 1353.94 42.1958C1369.17 53.5411 1362.32 58.1617 1362.83 69.2373C1362.94 71.4177 1363.93 73.3076 1364.3 75.4509C1366.36 87.1031 1366.07 99.7111 1366.53 111.526C1367.62 141.246 1371.23 156.008 1368.94 185.654C1367.78 200.473 1372.75 231.432 1370.74 246.172C1370.18 250.176 1366.73 274.609 1365.42 278.538C1364.25 282.025 1364.24 280.815 1364.52 285.586C1364.61 287.131 1364.25 290.151 1365 291.611C1365.15 291.902 1365.13 296.15 1364.97 301.097C1364.77 306.904 1364.15 309.312 1363.24 307.855C1362.03 305.913 1361.73 306.297 1361.28 310.365C1360.98 312.987 1361.33 316.271 1362.05 317.586C1363.25 319.823 1351.97 322.939 1349.28 322.335C1348.58 322.193 1347.83 319.743 1347.61 316.924C1346.87 307.693 1344.79 309.504 1344.32 319.779C1344.06 325.335 1343.35 318.842 1343.48 321.877C1343.72 327.826 1342.37 330.461 1338.85 331.147C1337.28 331.454 1336.13 330.436 1335.19 327.905C1333.02 322.003 1335.55 339.913 1332.69 342.532C1331.64 343.475 1330.41 343.664 1329.96 342.947C1329.07 341.514 1321.74 338.923 1319.15 341.981C1317.49 343.948 1317.2 343.682 1316.02 339.277C1313.44 329.521 1312.62 327.946 1311.15 329.92C1308.71 333.209 1305.16 325.404 1304.32 329.045C1304.08 330.156 1304.36 332.199 1305 333.692C1306.58 337.423 1306.11 344.748 1304.32 343.839C1302.27 342.809 1299.41 329.567 1298.41 327.911C1297.21 325.932 1295.77 328.465 1296.14 331.894C1296.49 335.238 1296.24 335.14 1293.55 330.877C1291.25 327.299 1291.06 326.068 1292.71 325.718C1294.5 325.342 1294.23 324.767 1291.26 322.415C1288.29 320.064 1287.78 318.899 1288.41 315.683C1288.97 312.767 1288.75 312.163 1287.59 313.277C1284.32 316.435 1287.13 323.256 1281.94 315.031C1278.98 310.329 1278.27 296.738 1279.66 288.359C1282.18 273.339 1294.32 221.058 1292.48 226.15C1291.57 228.61 1263.7 295.353 1263.19 295.671C1262.06 296.377 1263.29 297.057 1251.12 319.824C1239.69 341.2 1241.8 356.996 1234.77 370.237C1234.28 371.189 1225.98 384.255 1224.89 384.259C1222.62 384.265 1225.58 386.239 1220.16 398.349C1215.36 409.08 1212.09 414.453 1205.26 426.415C1198.33 438.57 1201.47 437.835 1198.74 440.367C1197.89 441.157 1196.8 443.951 1196.3 446.544C1195.81 449.159 1194.99 451.599 1194.48 451.976C1191.03 454.577 1188.94 457.612 1183.17 468.336C1169.7 493.392 1158.1 517.575 1159.27 518.162C1160.99 519.016 1157.22 526.309 1154.82 526.78C1152.52 527.216 1140.69 551.445 1142.11 552.804C1142.65 553.304 1142.22 553.858 1141.14 554.082C1138.99 554.492 1127.46 577.505 1127.01 582.247C1126.84 583.988 1126.08 585.59 1125.35 585.817C1122.96 586.507 1120.67 591.849 1122.39 592.704C1123.47 593.251 1123.23 593.689 1121.64 593.973C1120.26 594.226 1118.12 596.874 1116.66 600.193C1107.22 621.615 1067.26 686.423 1056.9 700.356C1046.16 714.79 1035.26 725.531 1024.23 732.564C1015.43 738.175 1012.84 739.215 1006.82 739.438C1002.99 739.578 999.409 739.143 999.005 738.496C998.602 737.848 998.111 737.833 997.945 738.546C997.51 740.423 989.808 740.633 983.2 738.941C979.989 738.116 977.576 737.181 977.992 736.921C978.409 736.662 974.633 735.548 969.488 734.453C963.081 733.085 960.465 733.11 961.026 734.526C962.457 738.161 971.604 739.908 967.64 740.709C959.957 742.287 929.369 709.795 929.352 707.399C929.344 706.665 928.623 706.023 927.829 706.036C925.769 706.132 922.727 697.852 923.589 701.295C923.954 702.705 923.75 704.18 923.172 704.54C921.415 705.636 917.245 701.108 917.802 698.706C918.177 697.092 918.943 696.775 920.764 697.534C924.369 699.043 920.551 696.575 917.95 694.152C914.327 690.76 898.822 649.092 898.434 642.753C898.118 637.3 891.973 636.764 894.013 631.64C894.824 629.594 894.358 627.765 892.521 625.797C891.079 624.255 890.235 622.695 890.674 622.421C891.113 622.147 890.296 619.96 888.841 617.625C887.385 615.29 886.491 612.155 886.859 610.738C887.414 608.691 887.581 608.651 887.74 610.606C887.885 612.538 888.059 612.559 888.563 610.639C888.854 609.559 888.575 608.288 888.066 606.904C889.005 606.608 889.707 606.138 890.146 605.607C890.497 606.994 891.035 608.424 891.816 609.832C893.424 612.789 894.122 611.23 893.91 605.156C892.471 566.278 890.954 569.663 891.567 555.092C891.791 549.527 891.661 544.375 891.229 543.682C890.797 542.988 890.922 542.107 891.5 541.747C892.263 541.272 892.591 532.785 892.391 526.489C893.258 526.334 894.353 525.619 894.466 525.645C897.856 523.05 894.06 520.152 891.603 519.661C891.367 518.973 891.64 517.712 892.325 516.803C893.106 515.738 893.21 514.101 892.532 513.014C891.855 511.928 891.79 510.845 892.368 510.484C892.946 510.124 893.206 507.811 892.978 505.385C892.534 500.397 893.43 478.812 894.171 477.065C894.791 475.588 893.362 456.864 892.512 455.5C892.166 454.945 890.635 455.321 888.993 456.344C885.109 458.765 886.052 462.287 884.162 499.997C881.849 545.836 883.22 562.509 881.95 566.961C880.099 573.571 879.953 535.943 881.723 503.604C882.586 487.785 883.376 470.921 883.862 460.473C897.988 452.44 797.604 493.336 675.803 712.49C654.657 750.517 607.706 847.58 594.302 869.545C590.887 875.14 587.345 881.457 586.4 883.651C580.866 896.507 534.021 973.6 511.179 1002.31C476.222 1046.25 468.15 1034.85 443.104 1041.28C439.95 1042.09 434.901 1042.28 431.858 1041.67C426.786 1040.69 406.631 1029.11 405.702 1026.64C405.471 1026.02 404.865 1025.82 404.264 1026.19C403.663 1026.56 402.469 1025.06 401.559 1022.93C400.65 1020.8 396.397 1015.52 392.165 1011.26C381.335 1000.32 370.989 983.206 364.992 966.27C358.779 948.73 356.552 944.436 357.201 943.004C358.287 940.626 347.76 904.009 345.167 862.608C345.073 861.222 340.7 816.244 342.686 811.86C343.155 810.861 343.127 810.301 342.627 810.581C341.428 811.232 341.72 792.334 340.841 790.924C339.962 789.513 337.52 791.26 322.501 804.248C264.609 854.295 218.81 930.543 212.9 931.722C211.592 931.992 211.115 932.514 211.874 932.908C212.633 933.302 203.565 949.194 191.77 968.23C143.657 1045.76 125.33 1089.96 107.098 1132.82C64.6598 1232.59 51.323 1311.52 44.2187 1300.13C43.0803 1298.3 33.6087 1300.25 36.2421 1298.2C37.1555 1297.5 38.5052 1296.62 39.0802 1296.36C39.739 1296.08 39.5808 1295.57 38.7467 1295.16C37.9646 1294.78 38.8554 1289.15 40.7346 1282.84C43.829 1272.41 44.4337 1271.42 46.5744 1273.1C49.9037 1275.72 50.7949 1274.26 48.8584 1273.32C46.9737 1272.41 49.0661 1264.33 51.3193 1263.82C52.2552 1263.62 53.4005 1264.48 53.8898 1265.78C54.6613 1267.74 55.0715 1267.68 56.4288 1265.33C59.2042 1260.61 58.3886 1259.35 53.7714 1261.27C51.1912 1262.33 48.6673 1264.51 47.706 1266.52C45.6966 1270.67 44.5722 1271.59 44.5667 1269.06C44.5517 1264.86 39.7129 1273.01 37.0567 1281.73C34.8877 1288.86 33.2643 1291.51 29.8655 1293.63C27.4378 1295.14 25.142 1297.54 24.7041 1299C24.2662 1300.46 24.186 1299.87 24.5267 1297.63C24.9926 1294.52 24.6702 1293.69 23.044 1293.97C21.5853 1294.2 21.4808 1292.44 22.6587 1288.04C24.9246 1279.73 21.771 1281.98 20.0791 1288.59C18.3698 1295.27 15.6093 1295.07 12.7475 1288.06C10.6459 1282.88 5.76304 1277.93 3.89025 1279.1C3.40472 1279.4 2.21855 1276.42 1.22143 1272.45C0.118064 1268 0.182826 1262.44 1.40435 1257.85C2.49822 1253.74 3.00746 1250.69 2.59129 1250.95C1.59709 1251.57 0.893211 1241.74 1.70329 1238.25C2.03429 1236.82 1.99894 1235.01 1.60986 1234.39C1.22079 1233.76 1.75351 1232.66 2.72459 1232.06C3.69566 1231.45 4.1131 1230.16 3.60874 1229.35C2.5712 1227.69 4.69751 1215.55 6.20037 1214.61C7.5645 1213.76 5.65131 1205.64 7.19009 1206C8.50368 1206.3 10.4967 1196.78 9.45915 1195.11C9.07007 1194.49 8.40251 1194.81 7.86977 1195.91C6.58146 1198.48 7.13031 1191.43 9.7762 1190.94C11.0154 1190.71 11.1842 1189.64 10.2764 1188.18C9.23883 1186.52 9.49978 1185.65 11.0596 1185.32C12.5357 1185.01 12.8748 1184.06 11.9901 1182.59C11.0477 1181.03 11.2417 1180.62 12.5895 1181.29C14.0643 1182 14.6976 1181.32 15.2095 1178.43C15.5847 1176.3 15.1627 1174.29 14.2392 1173.84C12.4065 1172.96 11.1212 1168.53 15.6759 1170.37C18.6921 1171.61 18.7385 1171.58 17.4217 1169.16C16.6985 1167.84 15.6666 1166.24 15.2139 1165.72C14.7756 1165.22 15.4232 1164.56 16.6336 1164.29C20.6429 1163.46 15.4473 1156.87 19.4474 1158.81C20.9222 1159.53 20.9233 1158.76 19.4333 1156.31C17.8944 1153.74 17.9275 1152.66 19.5249 1152.34C22.6128 1151.73 22.0878 1148.88 20.161 1149.34C18.6762 1149.69 25.353 1124.25 26.9946 1123.22C27.4802 1122.92 28.0683 1123.71 28.315 1125.03C28.9405 1128.3 30.7645 1124.53 28.644 1122.93C27.6457 1122.21 28.9127 1115.9 31.8637 1106.93C41.52 1077.51 37.0598 1094.77 40.8054 1092.43C43.0481 1091.03 44.1113 1083.73 42.2793 1082.33C41.2522 1081.56 42.0632 1077.3 44.3811 1071.23C44.9084 1069.81 59.9559 1029.26 62.1292 1027.91C62.7997 1027.49 63.055 1026.56 62.6371 1025.89C62.2192 1025.22 62.4135 1024.55 63.0605 1024.41C63.7307 1024.24 64.9295 1021.64 65.7681 1018.45C67.918 1010.46 76.325 998.61 75.5324 997.339C74.8119 996.183 79.1553 991.614 79.1758 993.656C79.2081 995.562 82.2648 994.491 80.2905 991.324C79.5124 990.075 79.9374 987.306 81.2251 985.252C82.5127 983.197 84.0976 981.31 84.6696 981.146C85.2879 980.954 85.436 980.316 85.0181 979.645C84.6002 978.975 85.0183 977.173 85.9937 975.442C87.273 973.168 87.6892 972.908 87.6873 974.45C87.6766 976.03 88.061 975.823 89.4558 973.477C90.4369 971.806 90.9099 969.938 90.4776 969.244C90.0452 968.551 90.1501 967.843 90.6789 967.61C93.574 966.383 94.6272 964.828 93.0716 964.032C90.1539 962.544 96.1917 963.115 96.152 960.218C96.1536 958.933 95.8185 959.013 95.086 960.465C94.2233 962.223 94.1137 962.098 94.4172 959.598C94.9541 955.154 100.733 954.538 103.406 948.731C106.606 941.76 134.902 894.655 147.932 874.56C149.74 871.796 150.895 869.374 150.459 869.293C149.25 869.051 130.399 898.296 115.813 923.053C112.783 928.184 110.58 930.263 111.32 927.33C111.932 924.862 138.277 882.247 141.426 878.647C142.852 877.02 144.362 874.602 144.869 873.098C146.13 869.455 153.735 859.611 155.048 859.916C155.574 860.038 154.798 861.677 153.38 863.523C150.728 866.942 149.139 872.427 161.136 855.158C171.273 840.622 181.526 828.229 183.126 828.58C184.35 828.844 176.908 840.288 174.422 841.966C173.651 842.479 172.453 844.317 171.836 845.954C170.865 848.517 171.049 848.916 172.973 848.551C174.189 848.339 175.01 847.699 174.707 847.214C174.405 846.728 175.359 845.427 176.758 844.426C179.981 842.129 181.311 840.658 186.282 833.644C188.431 830.603 189.902 827.76 189.585 827.251C189.268 826.743 190.421 825.863 192.108 825.325C193.795 824.787 194.544 824.032 193.776 823.676C191.742 822.729 201.506 817.381 203.759 812.446C204.611 810.567 206.381 808.308 207.56 807.573C208.947 806.708 210.888 804.311 219.793 789.548C213.019 794.957 204.538 801.591 199.211 809.887C194.408 817.375 185.058 828.178 184.352 827.045C183.977 826.444 184.442 824.357 185.343 822.351C187.344 817.99 197.973 804.656 199.235 804.929C199.76 805.051 201.988 802.186 204.256 798.46C206.525 794.735 209.163 791.293 210.203 790.645C212.839 789.002 216.587 782.91 215.366 782.291C214.763 781.993 215.858 781.021 217.867 780.122C220.918 778.734 220.999 778.555 218.356 778.95C215.615 779.342 215.728 778.855 219.256 774.986C223.903 769.875 228.184 766.854 225.283 770.749C223.596 772.988 223.752 773.083 227.141 771.773C229.207 770.967 230.285 770.071 229.578 769.709C228.886 769.37 229.022 768.611 229.887 768.04C231.037 767.259 230.78 767.001 228.868 766.973C227.508 766.954 226.847 766.563 227.48 766.137C230.515 764.053 234.582 758.629 232.926 762.615C231.277 766.563 233.514 763.147 238.679 761.854C240.903 761.302 240.915 761.166 238.758 761.002C236.503 760.834 236.388 760.649 237.908 759.638C239.336 758.684 239.252 758.447 237.43 758.459C235.715 758.437 235.756 757.833 237.531 755.892C243.121 749.872 270.862 727.061 273.384 726.42C274.9 726.02 276.19 724.896 276.173 723.943C276.171 721.055 297.067 709.925 291.836 710.649C289.361 711.004 289.125 710.831 290.752 709.784C293.945 707.698 294.294 710.883 298.964 707.972C303.241 705.307 313.295 702.636 313.316 704.164C313.314 705.963 322.534 703.812 326.711 705.157C328.163 705.632 330.338 705.465 331.425 704.787C332.812 703.923 331.727 703.315 327.872 702.796C320.818 701.831 321.271 700.394 331.474 702.188C335.557 702.918 342.889 702.939 347.741 702.226C359.298 700.577 384.807 706.636 391.375 712.59C393.81 714.797 398.812 721.278 402.455 726.968C408.906 737.009 409.217 737.971 411.744 756.139C418.39 803.681 414.28 824.541 419.124 865.534C422.007 889.836 431.498 927.933 436.816 936.465C438.934 939.863 441.649 939.327 442.581 935.311C442.886 933.997 444.24 931.998 445.66 930.824C447.079 929.651 448.983 926.73 449.982 924.213C452.456 917.985 452.594 921.398 459.748 908.721C462.643 903.578 465.724 898.993 466.649 898.417C467.573 897.84 468.511 896.1 468.738 894.61C469.402 890.473 473.543 890.524 475.853 884.237C476.71 881.905 478.169 879.455 479.01 878.899C479.874 878.328 482.242 874.092 484.249 869.534C489.398 857.914 495.195 855.008 496.832 847.952C497.494 845.099 498.762 842.704 499.767 842.463C500.712 842.227 501.805 840.84 502.151 839.436C502.482 838.01 503.786 836.652 505.002 836.44C506.218 836.227 506.805 835.316 506.287 834.483C504.932 832.31 506.988 827.368 510.095 825.4C511.575 824.478 513.202 821.73 513.858 819.074C515.669 811.782 520.471 803.107 522.709 803.093C523.933 803.1 524.02 802.725 522.932 802.215C521.339 801.41 522.424 799.803 525.31 798.614C526.665 798.058 530.161 792.798 527.878 791.556C526.949 791.044 526.822 790.738 527.581 790.874C529.672 791.241 530.499 783.245 533.237 782.694C534.294 782.485 535.085 780.869 534.963 779.179C534.864 777.475 535.738 775.839 536.856 775.624C540.446 774.895 541.361 759.108 545.689 758.016C549.118 757.131 548.756 753.151 546.769 755.834C541.733 762.536 549.075 745.472 551.022 747.052C552.453 748.214 557.597 738.235 555.698 737.299C554.878 736.911 554.964 735.349 555.867 733.759C557.8 730.371 558.997 729.561 559.003 731.58C559.027 733.523 564.746 725.24 562.458 723.937C561.358 723.306 561.642 723.194 563.348 723.511C565.444 723.938 565.761 724.704 565.217 727.9C564.167 733.787 561.949 731.67 560.922 737.286C560.55 739.315 558.917 742.773 557.337 744.977C553.753 749.94 541.68 772.135 536.014 784.11C516.86 824.715 449.092 934.014 442.261 941.802C441.078 943.149 440.354 944.821 440.715 945.399C441.378 946.462 449.051 937.089 452.05 931.496C452.811 930.091 460.114 918.733 468.276 906.231C491.985 869.945 495.42 861.448 510.878 836.597C513.931 831.709 516.652 826.546 517.015 825.068C518.008 820.789 520.757 816.701 522.645 816.743C523.552 816.756 524.076 815.691 523.792 814.359C523.522 813.051 523.922 811.581 524.685 811.106C526.35 810.068 539.474 788.374 539.537 786.569C539.558 785.882 540.913 783.111 542.499 780.453C546.952 773.023 550.291 763.751 553.955 757.166C565.897 735.533 589.334 685.421 597.158 671.139C600.024 665.95 602.76 660.296 603.273 658.596C604.198 655.547 607.362 649.755 614.518 638.008C620.67 627.946 623.325 618.298 625.614 616.871C626.469 616.338 627.256 614.82 627.46 613.344C627.976 609.588 637.373 596.027 636.877 593.479C636.441 591.183 646.619 576.043 648.638 576.037C649.432 576.023 649.889 574.903 649.605 573.572C649.286 572.133 650.042 570.924 651.388 570.663C653.935 570.167 657.321 565.039 657.357 561.646C657.38 559.416 660.584 553.535 664.758 548.076C666.98 545.151 667.245 545.114 666.913 547.568C666.321 551.821 668.767 549.719 673.14 542.21C675.892 537.509 676.209 536.06 674.314 536.728C667.648 539.116 703.845 492.479 696.298 507.36C695.038 509.836 695.198 510.196 696.779 508.44C700.567 504.217 700.702 504.743 704.374 499.662C705.866 497.576 709.358 492.928 712.036 489.397C717.179 482.66 718.095 479.906 713.677 484.458C708.634 489.655 708.501 485.372 722.164 470.725C729.301 463.067 730.191 462.383 730.235 464.411C730.248 465.205 731.456 464.773 732.896 463.426C735.449 461.033 735.529 459.41 733.187 456.889C732.668 456.313 734.002 456.188 736.145 456.586C740.008 457.325 740.04 457.273 739.227 453.188C738.768 450.906 739.262 448.865 740.319 448.656C741.399 448.432 742.464 448.956 742.755 449.834C743.419 451.827 743.859 451.554 746.657 447.338C747.924 445.457 748.438 443.242 747.861 442.318C747.285 441.393 748.032 439.45 749.452 438.019C750.872 436.589 751.388 435.047 750.606 434.668C749.757 434.234 750.841 433.398 753.193 432.638C759.011 430.745 758.615 433.304 760.511 432.122C761.205 431.69 760.603 430.363 759.175 429.102C757.747 427.842 756.299 426.754 755.872 426.635C753.937 426.107 732.358 452.365 730.557 451.947C729.994 451.816 732.872 447.936 736.912 443.395C750.348 428.28 752.821 425.037 753.284 421.763C753.521 419.978 753.807 419.511 753.884 420.715C754.235 425.761 777.847 402.249 762.47 417.803C759.061 421.244 757.654 423.726 758.404 424.929C759.066 425.992 760.213 426.08 761.103 425.14C765.487 420.481 769.077 418.051 770.5 418.738C771.729 419.32 773.411 418.207 776.355 414.895C781.922 408.633 782.141 406.667 776.762 411.015C772.715 414.308 772.758 414.12 777.319 408.87C786.999 397.668 798.071 388.135 810.251 379.709C816.098 375.647 821.128 371.356 821.375 370.207C821.982 367.421 806.564 379.15 798.561 384.234C797.632 383.465 797.243 382.84 796.777 383.741C796.447 384.396 795.739 384.291 794.945 384.305C797.655 381.235 804.582 377.207 805.708 375.253C806.475 373.908 825.653 362.34 834.421 357.968C845.138 352.604 886.958 352.382 893.811 349.523C898.781 347.453 912.304 347.981 921.083 350.631C930.162 353.351 937.98 357.243 938.604 359.325C938.802 360.004 941.8 362.341 945.13 364.439C951.242 368.271 966.874 386.039 973.503 396.674C980.924 408.582 987.766 442.84 986.329 444.603C984.868 446.38 987.992 449.023 986.443 449.989C985.842 450.364 985.635 454.409 985.999 459.062C986.97 472.261 986.971 473.962 985.868 478.116C985.311 480.261 985.321 481.153 985.926 480.166C987.935 476.796 988.585 480.981 987.846 492.517C987.306 500.975 986.535 503.96 985.019 503.332C983.631 502.752 983.674 503.079 985.162 504.334C988.044 506.743 988.937 510.906 987.132 513.315C986.076 514.711 985.522 514.543 985.155 512.717C984.329 508.353 982.937 514.774 983.249 521.609C983.433 525.647 983.755 526.163 984.215 523.159C984.611 520.6 985.28 518.739 985.73 518.843C986.181 518.948 986.031 530.502 985.415 544.4C984.8 558.299 984.507 570.809 984.748 572.071C984.961 573.287 985.177 575.592 985.204 576.923C985.27 582.436 986.782 590.322 987.962 591.288C988.611 591.814 988.718 593.481 988.194 594.803C987.195 597.319 989.739 599.65 991.981 598.252C992.652 597.835 992.575 597.144 991.778 596.742C990.982 596.339 994.224 589.696 999.005 581.965C1011.5 561.688 1006.19 568.881 1013.59 556.536C1019.1 547.353 1020.71 542.98 1018.91 542.109C1018.17 541.738 1018.55 541.274 1019.76 541.038C1023.77 540.27 1031.28 522.236 1037.6 509.563C1038.79 507.15 1038.97 504.956 1038 504.435C1036.95 503.873 1037.02 503.535 1038.17 503.525C1041.14 503.503 1052.16 483.12 1049.84 481.967C1048.14 481.137 1049.99 476.287 1052.03 476.304C1055.43 476.303 1065.51 452.361 1072.34 441.525C1074.25 438.507 1076.06 434.934 1076.39 433.508C1076.74 432.105 1077.53 430.647 1078.11 430.287C1081.02 428.471 1082.91 422.837 1082.2 428.606C1081.8 431.874 1081.87 431.892 1083.64 428.862C1084.69 427.087 1085.2 425.326 1084.82 424.884C1083.08 422.857 1082.54 420.754 1083.65 420.062C1084.3 419.659 1086.22 416.15 1087.98 412.227C1089.72 408.282 1091.48 404.911 1091.92 404.637C1092.35 404.363 1093.18 402.34 1093.79 400.068C1094.96 395.674 1100.73 390.862 1100.77 394.272C1100.78 397.123 1102.99 392.889 1101.39 392.122C1100.14 391.516 1103.37 382.219 1105.22 381.066C1105.89 380.648 1106.16 379.326 1105.89 378.017C1105.61 376.746 1106.3 374.356 1107.45 372.705C1112.21 365.859 1129.46 330.449 1129.36 338.633C1129.34 340.862 1132.69 336.754 1130.92 335.831C1130.2 335.446 1130.47 334.993 1131.55 334.769C1134.07 334.287 1138.97 324.587 1137.14 323.707C1135.24 322.772 1139.18 315.953 1139.2 318.765C1139.2 321.555 1142.68 318.903 1143.11 315.778C1143.36 313.858 1143 313.121 1141.71 313.12C1139.1 313.145 1139.38 309.79 1142.03 309.297C1143.23 309.061 1143.61 308.597 1142.85 308.241C1142.11 307.893 1142.24 306.597 1143.12 305.437C1145.49 302.289 1145.3 304.143 1146.49 298.941C1147.83 292.965 1151.59 288.438 1154.85 288.878C1156.92 289.161 1157.64 288.714 1158.11 286.847C1159.14 282.675 1156.49 288.921 1154.07 287.728C1153.28 287.326 1153.89 284.502 1155.46 281.405C1164.04 264.568 1167.4 256.371 1165.98 255.685C1165.02 255.224 1165.19 254.89 1166.4 254.874C1167.52 254.855 1169.82 251.909 1171.55 248.394C1183.13 224.642 1187.14 215.307 1186.17 214.431C1185.57 213.876 1185.81 213.377 1186.7 213.366C1187.63 213.364 1189.44 211.175 1190.83 208.413L1216.45 173.025C1216.45 173.025 1180.17 195.99 1155.13 210.508C1154.31 209.41 1153.2 208.34 1153.83 207.717C1157.05 204.588 1146.21 208.201 1150.04 212.136C1150.34 212.463 1150.55 212.749 1150.72 213.027C1147.42 214.891 1144.42 216.568 1141.81 217.939C1141.76 217.492 1141.64 217.05 1141.33 216.76C1139.91 215.401 1139.58 216.669 1139.44 216.559C1138.47 217.935 1138.14 215.861 1136.06 218.761C1135.27 219.901 1135.07 220.666 1135.21 221.154C1133.63 221.816 1132.57 222.161 1132.11 222.057C1126.83 220.95 1113.71 220.494 1112.35 221.345C1111.51 221.863 1109.62 221.821 1107.94 221.232C1105.7 220.476 1105.29 219.866 1106.25 218.724C1107.88 216.747 1106.01 214.218 1102.6 213.743C1098.82 213.242 1098.15 211.603 1101.31 210.597C1102.79 210.128 1104.04 208.896 1104.03 207.906C1104.03 206.719 1103.48 206.808 1102.43 208.167C1101.08 209.909 1100.6 209.66 1099.43 206.6C1098.19 203.364 1097.65 203.182 1094.53 205.127C1092.59 206.338 1090.73 206.855 1090.38 206.3C1090.04 205.745 1091.5 203.197 1093.67 200.595C1095.83 197.993 1097.73 194.853 1097.91 193.491C1098.14 191.547 1097.33 191.696 1093.75 194.187C1093.19 194.57 1092.68 194.888 1092.18 195.167C1092.06 194.309 1091.04 193.597 1088.56 193.952C1088.3 193.99 1088.09 194.021 1087.9 194.076C1088.04 193.929 1088.18 193.805 1088.37 193.689C1089.43 193.027 1089.96 191.924 1089.55 191.254C1088.61 189.751 1092.92 187.033 1094.01 186.257C1089.77 187.904 1087.61 189.38 1088.07 186.045C1088.27 184.569 1089.19 182.904 1090.14 182.314C1091.09 181.723 1091.19 180.184 1090.39 178.912C1089.6 177.64 1089.59 175.72 1090.34 174.707C1092.33 172.085 1090 169.171 1086.1 169.452C1084.29 169.585 1082.61 169.254 1082.29 168.745C1081.97 168.237 1082.84 166.283 1084.22 164.367C1086.62 161.069 1086.6 160.985 1083.81 162.532C1078.99 165.25 1079.56 160.913 1084.61 156.449C1089.84 151.809 1091.24 149.621 1089.52 148.767C1081.43 144.694 1268.93 35.0835 1277.23 19.8027C1278.07 18.6341 1278.82 17.3644 1278.97 17.2404C1279.9 16.4677 1287.43 16.7514 1291.3 17.7093C1297.15 19.1663 1297.99 16.5538 1301.42 14.837C1303.72 13.6905 1306.4 18.505 1304.8 20.7844C1300.3 27.1552 1312.03 21.8677 1312.63 17.5771C1312.78 16.4857 1312.07 15.1333 1311.97 14.004C1311.52 8.18445 1315.52 2.99997 1321.66 2.44742C1323.76 2.26233 1325.81 3.29298 1327.78 2.80163C1332.35 1.62621 1335.55 -0.913984 1340.47 1.41401C1346.93 4.47745 1346.33 12.2075 1349.86 17.4562L1349.85 17.4938ZM916.053 351.936C916.498 350.022 928.165 353.857 928.671 356.11C928.907 357.055 929.841 357.885 930.71 357.889C932.729 357.883 941.208 362.422 931.052 359.313C926.97 358.069 923.536 356.679 923.369 356.205C922.851 354.858 915.641 353.798 916.068 351.959L916.053 351.936ZM882.908 373.493C884.074 372.221 884.501 372.083 885.237 372.748C886.509 373.913 884.619 374.641 885.597 375.541C886.693 376.527 886.404 374.621 888.669 376.708C890.904 378.75 889.546 379.147 888.744 378.427C887.7 377.473 887.681 379.09 886.342 377.869C885.004 376.649 885.279 378.532 883.043 376.491C881.529 375.091 881.518 374.97 882.871 373.484L882.908 373.493ZM906.512 419.038C906.512 419.038 907.965 418.485 908.159 420.033C908.542 423.069 903.103 419.493 906.512 419.038ZM956.926 508.064C956.548 505.603 960.985 506.594 959.666 504.27C957.937 501.239 963.808 500.821 961.914 507.877C960.994 511.243 960.571 507.526 958.331 508.825C958.231 508.664 957.181 509.607 956.949 508.05L956.926 508.064ZM406.371 763.949C406.365 762.188 406.99 760.771 407.761 760.772C408.533 760.773 408.967 759.667 408.72 758.344C406.984 749.378 414.565 765.456 408.427 766.681C406.853 766.988 406.389 766.346 406.357 763.926L406.371 763.949ZM47.9992 1279.15C49.6993 1282.14 50.4292 1284.95 49.7118 1285.92C49.0494 1286.81 48.8658 1288.11 49.2982 1288.81C50.3933 1290.56 48.2296 1295.8 45.7383 1297.41C42.7758 1299.36 39.7185 1294.04 41.0817 1289.27C42.0215 1285.99 42.2845 1285.79 43.4085 1287.6C44.9072 1290 46.2364 1289.3 47.8875 1285.26C49.3011 1281.81 49.3615 1282.06 42.3765 1283.78L43.3353 1279.14C43.87 1276.49 44.456 1274.39 44.6872 1274.25C44.9184 1274.1 46.4144 1276.35 47.9992 1279.15ZM60.7112 1242.53C61.767 1241.13 62.4684 1241.43 63.5801 1243.89C64.5707 1246.09 64.1931 1247.81 62.317 1249.33C60.1691 1251.08 59.4905 1251.03 59.1262 1249.1C58.8537 1247.63 57.6996 1246.81 56.316 1247.07C54.4298 1247.44 54.2842 1246.02 55.6434 1239.91C58.0133 1229.19 60.1157 1229.16 58.3294 1237.37C56.9381 1243.79 58.0152 1246.13 60.7256 1242.55L60.7112 1242.53ZM440.404 1039.11C439.96 1041.02 428.626 1040.09 425.247 1037.86L421.868 1035.63C434.288 1036.4 440.805 1037.38 440.404 1039.11ZM472.237 1024.82C472.269 1026.98 467.616 1029.82 464.209 1029.76C462.025 1029.71 461.772 1029.35 462.69 1027.53C463.544 1025.81 463.212 1025.53 461.045 1026.18C458.665 1026.89 458.653 1026.77 460.902 1025.17C462.315 1024.2 464.849 1023.68 466.5 1024.06C468.076 1024.43 470.15 1024.35 470.867 1023.91C471.653 1023.42 472.239 1023.79 472.26 1024.81L472.237 1024.82ZM276.305 727.553C276.511 726.75 282.65 722.539 290.042 718.124C305.221 709.049 309.706 708.725 316.922 707.117C308.681 711.098 300.703 714.625 282.602 726.067C260.909 739.781 275.695 729.923 276.305 727.553ZM253.411 747.632C257.894 742.206 262.407 739.713 265.852 737.566C262.718 740.675 259.245 744.22 254.016 748.603C248.329 753.335 248.259 753.892 253.411 747.632ZM235.338 771.223C234.881 769.357 252.123 752.159 265.603 741.028C287.599 722.857 297.79 722.829 284.928 729.851C273.519 736.063 269.359 741.544 246.313 760.659C243.816 762.729 241.9 765.528 241.953 767.004C242.043 769.259 241.734 769.484 239.915 768.627C238.337 767.846 238.045 767.995 238.765 769.151C240.048 771.209 235.979 773.745 235.367 771.27L235.338 771.223ZM152.331 878.27C150.926 875.037 175.986 838.552 167.874 854.586C166.482 857.348 165.536 860.57 165.766 861.711C166.03 862.959 165.078 864.162 163.353 864.691C161.666 865.229 161.036 866.072 161.768 866.835C162.443 867.506 160.781 870.917 158.132 874.238C153.822 879.685 153.143 880.14 152.331 878.27ZM82.7173 1186.57C81.7959 1193.69 72.9703 1203.17 75.7401 1195.92C76.76 1193.23 76.4638 1192.29 74.2068 1191.2C71.6815 1189.98 71.7917 1189.59 75.0403 1187.43C77.0462 1186.12 78.8039 1184.51 78.9607 1183.83C79.1175 1183.16 80.094 1182.87 81.1593 1183.14C82.4122 1183.45 82.9421 1184.66 82.6942 1186.58L82.7173 1186.57ZM38.6789 1118.64C31.0506 1140.6 30.3622 1139.13 37.3655 1115.86C43.148 1096.65 63.032 1049.5 63.4001 1046.12C63.4557 1045.54 64.1386 1044.47 64.8007 1043.83C66.8159 1041.97 82.0321 1007.25 82.357 1003.81C82.5007 1002.08 82.9323 1001.07 83.2868 1001.59C83.6558 1002.13 84.656 1001.32 85.5735 999.748C86.705 997.855 86.5362 996.452 85.0735 995.341C83.0856 993.851 83.21 993.741 86.3891 994.104C89.1466 994.407 89.4153 994.272 87.7183 993.403C86.0877 992.59 86.1604 992.191 87.9629 991.839C90.1986 991.408 93.9097 984.28 94.1491 979.925C94.2023 978.929 94.5465 978.554 94.8635 979.063C95.6273 980.288 99.1428 974.855 97.4672 973.042C96.7722 972.287 97.3168 971.049 98.6809 970.199C102.08 968.08 111.034 952.933 109.924 951.153C108.915 949.535 109.722 939.497 113.85 938.241C115.338 937.795 116.018 937.082 115.334 936.706C114.627 936.344 114.782 934.739 115.699 933.172C118.805 927.801 124.459 932.238 124.281 927.213C124.222 925.677 125.214 924.384 126.667 924.089C128.651 923.719 128.661 923.167 126.757 921.4C124.654 919.469 125.196 917.815 131.016 908.249C134.708 902.223 137.986 897.13 138.403 896.871C138.819 896.612 139.145 897.083 139.135 897.891C139.148 900.901 145.19 893.957 142.413 892.541C141.631 892.162 142.048 891.646 143.394 891.385C146.664 890.759 147.599 893.29 145.635 893.23C144.729 893.217 144.086 894.195 144.09 895.541C144.103 896.849 142.944 899.883 141.408 902.414C139.017 906.408 138.546 906.733 137.523 905.092C136.125 902.849 135.49 903.117 133.264 906.911C131.892 909.243 132.099 909.885 134.536 910.806C136.172 911.423 136.796 911.805 135.953 911.688C134.177 911.415 135.307 913.022 121.177 937.687C93.4628 986.035 69.9742 1035.86 61.1108 1059.39C56.3937 1071.96 50.4722 1084.61 49.3465 1088.78C48.0931 1093.41 45.096 1099.93 38.6213 1118.54L38.6789 1118.64ZM153.213 1001.86C152.542 1002.28 151.741 1001.56 151.528 1000.34C151.035 997.696 150.399 997.964 148.174 1001.76C145.98 1005.5 149.805 1007 149.872 1003.81C149.912 1002.02 150.201 1001.97 151.238 1003.64C152.751 1006.06 151.612 1007.22 148.422 1006.48C145.307 1005.76 140.477 1014.13 142.952 1015.99C144.097 1016.85 144.145 1018.27 143.098 1019.63C140.532 1022.93 140.194 1027.28 138.469 1028.06C136.461 1028.96 138.089 1034.3 136.339 1031.7C135.002 1029.71 132.563 1031.36 134.056 1032.93C135.764 1034.69 127.779 1052.99 127.81 1046.55C127.831 1043.91 124.835 1047.44 126.06 1049.41C127.025 1050.96 124.572 1058.97 122.765 1060.19C122.187 1060.55 121.845 1059.39 122.003 1057.68C122.273 1054.82 122.16 1054.79 121.215 1057.5C120.612 1059.16 120.683 1060.82 121.361 1061.13C122.902 1061.91 113.632 1080.46 111.309 1081.27C110.338 1081.62 110.144 1082.54 110.876 1083.3C111.661 1084.1 111.192 1085.1 109.79 1085.68C108.374 1086.24 107.905 1087.24 108.704 1088.06C109.423 1088.8 109.034 1089.88 107.832 1090.37C106.523 1090.89 106.027 1092.52 106.577 1094.33C107.115 1096.02 106.717 1097.39 105.712 1097.37C104.707 1097.36 101.85 1102.76 99.376 1109.25C62.6599 1206.1 108.77 1072.61 114.501 1071.35C115.567 1071.1 115.859 1070.44 115.208 1069.75C112.995 1067.44 148.529 996.818 150.645 995.114C150.862 994.947 151.035 995.481 151.037 996.411C151.056 997.266 151.895 997.995 152.825 997.993C154.904 997.981 155.198 1000.72 153.256 1001.93L153.213 1001.86ZM174.001 959.498C172.413 963.441 175.418 967.026 170.246 969.543C168.174 970.546 167.205 971.824 167.795 972.772C168.718 974.252 167.449 977.418 161.428 988.618C158.606 993.876 156.331 995.84 158.075 991.479C158.99 989.239 158.757 988.453 157.229 988.474C156.019 988.49 155.011 989.087 154.819 989.912C154.523 991.188 154.687 991.76 156.343 995.19C157.282 997.109 154.701 996.47 152.922 994.337C151.004 992.033 156.531 983.902 156.56 985.906C156.561 986.836 157.543 987.38 158.73 987.122C160.206 986.812 160.268 986.035 158.964 984.664C157.58 983.216 157.736 982.54 159.501 982.179C161.183 981.837 161.385 981.39 160.179 980.793C159.01 980.206 159.19 979.773 160.778 979.489C162.185 979.222 162.946 978.074 162.65 976.621C162.395 975.335 163.09 973.618 164.139 972.932C165.212 972.231 167.506 968.907 169.225 965.589C172.103 960.007 175.533 955.622 173.955 959.527L174.001 959.498ZM318.326 803.319C275.983 841.588 230.523 905.812 245.861 881.902C250.76 874.258 291.323 820.566 329.6 789.936C330.421 789.296 331.293 789.202 331.639 789.757C331.985 790.312 326.031 796.366 318.326 803.319ZM305.028 798.156C301.486 802.258 297.024 806.997 295.182 808.627C290.504 812.762 291.838 813.151 287.686 816.894C272.213 830.904 257.816 852.204 246.3 866.123C218.8 899.314 190.009 944.802 189.99 941.475C189.981 939.298 188.9 940.035 186.88 943.542C185.714 945.585 185.055 945.867 184.237 944.708C183.657 943.881 183.419 944.736 183.749 946.553C184.435 950.331 182.581 952.61 180.842 950.13C180.263 949.303 179.991 950.051 180.263 951.775C180.535 953.5 180.248 954.224 179.631 953.389C178.798 952.207 178.154 952.512 176.9 954.673C175.997 956.264 175.107 957.204 174.862 956.811C174.069 955.539 189.746 931.194 191.349 931.19C192.218 931.194 192.615 930.594 192.182 929.9C191.13 928.213 197.204 918.231 201.002 915.414C202.673 914.18 203.764 912.891 203.49 912.452C202.928 911.55 207.803 904.178 209.19 903.827C209.692 903.706 210.864 901.981 211.767 900.134C214.217 894.947 229.534 874.197 232.078 872.612C233.442 871.762 234.305 871.962 234.292 873.126C234.258 874.463 234.969 874.213 236.629 872.343C239.943 868.544 240.609 864.823 237.371 868.125C234.256 871.318 234.965 868.18 238.216 864.485C239.861 862.592 240.572 862.342 240.576 863.688C240.564 866.038 241.998 865.145 245.824 860.416C248.96 856.536 248.953 853.074 245.824 856.5C243.736 858.765 248.014 850.641 252.085 849.292C257.499 847.522 283.429 812.742 298.94 798.741C315.648 783.672 324.534 776.143 329.023 773.25C333.844 770.117 333.919 770.134 332.343 773.684C329.775 779.555 315.304 786.262 305.005 798.171L305.028 798.156ZM492.593 1016.53C486.054 1023.66 479.532 1027.3 485.999 1021.25C492.522 1015.13 489.949 1015.48 494.428 1012.88C496.621 1011.61 496.057 1012.77 492.593 1016.53ZM495.739 996.496C494.075 997.533 492.669 999.244 492.653 1000.25C492.646 1001.22 491.692 1002.26 490.597 1002.46C489.517 1002.69 488.54 1003.49 488.548 1004.22C488.554 1005.98 481.43 1010.78 480.666 1009.55C480.363 1009.06 481.789 1007.44 483.815 1005.95C489.746 1001.61 487.468 999.501 494.336 994.193C496.047 992.869 499.924 993.888 495.716 996.51L495.739 996.496ZM561.171 896.326C558.829 898.235 557.768 899.314 556.122 901.463C550.161 909.256 550.086 906.766 552.744 902.894C558.198 894.904 558.73 889.629 561.166 893.536C561.771 894.507 561.76 895.83 561.148 896.34L561.171 896.326ZM568.127 883.227C566.891 890 556.207 893.77 563.645 884.896C568.455 879.17 568.915 878.98 568.127 883.227ZM572.65 873.538C570.499 874.878 570.217 874.733 571.1 872.802C572.087 870.678 572.001 870.539 570.322 871.554C568.134 872.885 571.923 863.718 574.165 862.32C574.951 861.831 576.3 861.728 577.082 862.107C579.085 863.106 575.785 871.616 572.65 873.538ZM583.504 726.903C583.18 727.105 582.361 726.203 581.638 724.888C580.88 723.466 581.251 722.208 582.549 721.817C583.762 721.446 585.72 718.973 586.904 716.341C589.184 711.293 589.453 710.9 590 711.779C590.375 712.38 584.359 726.37 583.481 726.918L583.504 726.903ZM643.4 727.614C640.204 728.771 642.25 730.096 640.852 730.582C639.644 731.014 638.335 727.368 639.543 726.936C641.071 726.401 638.058 722.339 640.176 721.565C642.331 720.8 642.562 725.857 644.09 725.322C645.191 724.924 646.457 726.543 643.377 727.628L643.4 727.614ZM618.408 656.61C618.251 657.286 615.833 662.677 613.099 668.49C608.087 679.094 604.194 684.281 607.196 676.375C609.606 669.993 610.284 665.879 612.365 664.582C613.267 664.02 614.543 662.101 615.273 660.234C616.513 657.021 619.035 654.165 618.445 656.619L618.408 656.61ZM633.871 664.886C633.415 666.679 632.047 665.926 632.279 665.011C632.546 663.946 631.434 664.222 631.599 663.509C631.678 663.171 634.405 662.756 633.871 664.886ZM665.896 672.181C665.133 673.17 663.827 673.342 664.446 672.378C664.637 672.066 664.632 671.749 664.439 671.644C664.179 671.485 664.36 669.767 665.791 670.673C665.673 670.843 667.036 670.764 665.896 672.181ZM635.178 626.448C632.912 627.86 635.043 621.235 638.538 615.975C642.374 610.181 643.664 608.799 644.269 609.77C644.745 610.533 636.528 625.574 635.178 626.448ZM693.817 674.072C694.688 677.221 693.636 677.491 692.803 674.351C691.932 671.202 692.983 670.932 693.817 674.072ZM658.939 559.857C659.227 558.105 663.36 557.423 663.315 559.152C663.291 559.681 663.738 560.141 664.252 560.141C664.902 560.154 666.721 562.712 662.906 562.617C659.816 562.553 661.132 561.316 659.696 561.279C659.708 561.143 658.654 561.512 658.924 559.834L658.939 559.857ZM671.85 596.593C671.888 596.858 671.957 597.072 671.985 597.375C672.381 602.233 669.282 599.991 669.532 602.917C669.754 605.539 665.881 605.867 665.682 603.23C665.449 600.486 667.509 601.834 667.333 599.697C667.159 597.462 669.228 599.03 668.983 596.165C668.841 594.391 670.651 593.071 671.534 595.313C672.222 595.334 672.712 596.12 671.859 596.555L671.85 596.593ZM663.948 574.745C664.358 572.467 665.206 570.686 665.925 570.655C666.584 570.63 667.351 569.285 667.532 567.824C667.829 565.52 667.644 565.378 666.383 567.063C665.287 568.549 664.738 568.442 664.377 566.677C664.107 565.368 664.045 564.187 664.23 564.072C664.415 563.956 666.63 563.699 669.192 563.483L673.83 563.096C671.461 566.402 666.916 572.606 664.885 575.991C663.235 578.752 663.198 578.743 663.925 574.759L663.948 574.745ZM712.673 617.794C711.461 619.095 710.074 619.703 709.699 619.102C709.325 618.501 708.008 618.551 706.814 619.263C704.658 620.542 710.981 608.384 713.209 606.963C713.926 606.516 713.314 608.213 711.806 610.79C709.459 614.853 709.487 615.414 712.029 615.371C714.608 615.336 714.668 615.588 712.644 617.748L712.673 617.794ZM718.959 615.931C718.811 616.055 718.747 616.673 718.813 617.242C719.136 620.026 716.075 619.494 714.918 616.555C714.596 615.729 716.764 613.543 717.969 613.466C719.21 613.399 719.87 615.074 718.959 615.931ZM698.052 548.289C695.173 543.309 702.642 544.529 700.963 548.015C700.348 547.852 700.406 552.375 698.052 548.289ZM717.557 570.931C717.439 573.059 715.82 574.582 715.735 572.644C715.716 572.046 715.405 571.598 715.026 571.609C714.55 571.617 713.132 569.034 715.971 568.901C715.982 569.28 717.751 567.792 717.58 570.916L717.557 570.931ZM711.797 565.243C711.213 563.842 712.514 562.581 713.916 563.184C716.901 564.47 712.943 568.06 711.797 565.243ZM736.746 569.372C736.989 568.835 734.873 568.324 735.399 567.932C735.916 567.578 737.876 568.764 738.087 568.279C738.191 568.086 738.824 568.173 739.525 568.475C742.792 569.905 736.097 570.804 736.731 569.349L736.746 569.372ZM764.977 560.637C762.48 561.679 765.339 564.103 761.875 562.923C761.798 562.747 755.024 559.553 761.265 556.947C766.035 554.969 766.309 560.096 764.977 560.637ZM746.26 505.369C746.55 506.761 745.856 507.708 744.998 508.082C744.998 508.082 745.004 508.143 744.995 508.18C744.263 509.632 742.639 507.851 742.124 508.878C741.721 509.675 740.139 509.505 741.291 507.182C741.711 506.31 742.347 506.043 742.936 506.061C743.052 505.732 743.176 505.365 743.431 504.95C743.636 504.918 745.359 500.987 746.26 505.369ZM758.396 515.879C755.462 515.91 757.557 513.192 758.935 514.58C759.91 515.577 759.803 515.869 758.396 515.879ZM744.749 474.305C744.787 473.543 742.046 473.935 742.506 473.231C742.957 472.565 745.793 473.045 745.814 472.357C745.837 472.086 746.614 471.89 747.596 471.921C752.089 472.073 744.665 476.283 744.734 474.282L744.749 474.305ZM782.533 502.119C782.618 505.501 777.698 503.014 777.784 505.625C777.863 509.203 773.677 505.68 776.957 501.774C778.794 499.57 782.498 499.797 782.533 502.119ZM758.024 451.361C757.04 450.401 754.014 454.662 753.649 453.252C753.5 452.704 752.787 452.538 751.966 452.921C749.389 454.142 746.067 449.792 748.019 447.773C750.83 444.865 751.841 449.372 753.145 448.013C754.394 446.721 754.987 450.3 757.595 447.583C757.757 447.739 758.849 445.421 760.677 447.171C762.763 449.177 758.774 452.049 758.009 451.337L758.024 451.361ZM794.866 505.219C791.232 503.664 795.001 501.058 793.269 500.339C792.314 499.94 792.514 496.861 795.753 498.246C797.334 498.929 800.03 507.426 794.881 505.242L794.866 505.219ZM779.025 423.505C775.686 428.346 770.633 432.137 771.365 429.242C771.948 426.984 774.909 423.855 779.007 421.108C781.716 419.323 781.715 419.58 779.025 423.505ZM936.412 652.18C932.068 652.576 935.063 648.109 932.317 647.413C930.787 647.018 931.192 644.68 935.389 648.066C935.446 648.673 941.62 651.727 936.404 652.218L936.412 652.18ZM947.742 623.899C946.847 623.751 947.798 622.805 946.565 622.578C945.483 622.386 945.759 620.769 946.842 620.961C947.985 621.147 947.62 619.994 948.402 620.117C949.124 620.245 948.473 623.989 947.751 623.862L947.742 623.899ZM1001.43 701.444C1001.14 700.309 1001.38 700.067 1002.67 700.227C1005.24 700.548 1002.09 703.989 1001.43 701.444ZM862.201 377.25C865.263 378.712 862.721 381.484 858.971 380.772C857.911 380.566 857.107 376.958 857.819 375.679C858.554 374.386 860.696 374.785 860.969 376.252C861.015 376.48 861.56 376.943 862.201 377.25ZM841.026 359.244C841.928 361.411 846.712 357.755 847.331 359.263C847.886 360.618 850.193 358.603 850.772 359.943C851.25 361.122 845.009 363.728 844.517 362.526C843.981 361.255 839.78 363.167 839.893 364.637C840.01 366.266 837.88 364.961 837.972 365.16C829.789 362.331 839.924 356.496 841.073 359.215L841.026 359.244ZM839.743 367.074C840.832 367.07 842.297 370.554 841.816 371.946C841.312 373.351 839.111 373.374 838.573 371.944C838.49 371.707 837.835 371.377 837.168 371.183C833.839 370.272 835.888 367.069 839.781 367.083L839.743 367.074ZM839.506 452.967C840.529 454.095 840.396 454.499 838.813 455.1C835.684 456.312 837.216 450.478 839.506 452.967ZM833.167 477.977C834.079 478.821 834.435 477.539 835.053 478.118C835.347 478.384 834.281 481.36 832.434 479.685C830.854 478.231 832.403 477.265 833.167 477.977ZM818.78 459.271C818.665 459.343 819.968 460.457 818.521 461.327C815.717 463.01 816.895 456.144 818.78 459.271ZM849.952 477.403C843.434 484.097 834.597 491.499 834.995 489.871C835.691 487.126 842.26 480.72 848.018 477.132L853.567 473.673L849.952 477.403ZM845.767 456.833C845.176 456.142 845.188 455.749 845.755 455.268C846.856 454.357 847.192 455.977 848.03 455.262C850.118 453.512 847.503 458.897 845.767 456.833ZM847.887 438.498C847.717 438.379 844.034 439.166 845.46 437.282C846.808 435.479 842.391 436.53 845.764 432.052C849.137 427.575 849.345 432.132 850.716 430.314C851.031 429.893 852.001 430.059 852.858 430.713C854.676 432.084 850.983 437.852 847.887 438.498ZM830.382 379.714C829.357 379.357 829.415 381.665 828.234 381.727C828.136 381.724 828.032 381.403 827.978 380.956C824.318 384.2 817.905 387.715 817.887 386.089C817.879 385.356 821.019 382.821 824.917 380.423C826.651 379.343 827.975 378.582 828.874 378.118C829.036 378.017 829.197 377.916 829.411 377.847C830.301 377.421 830.656 377.424 830.537 377.852C831.317 378.329 831.167 379.995 830.359 379.728L830.382 379.714ZM843.92 393.555C844.252 393.573 843.196 391.053 846.528 391.352C848.465 391.525 848.895 392.06 848.731 393.96C848.447 397.315 843.622 396.887 843.906 393.532L843.92 393.555ZM935.532 564.03C932.832 561.861 934.699 560.89 935.57 561.567C936.669 562.455 937.666 559.522 939.267 560.803C940.883 562.108 938.204 563.681 939.34 564.578C940.255 565.324 938.137 568.57 936.498 567.28C934.816 565.921 938.218 566.176 935.518 564.007L935.532 564.03ZM1027.83 707.946C1027.24 707.928 1026.14 708.998 1026.25 709.024C1024.25 711.624 1025.16 708.968 1023.75 708.917C1022.63 708.875 1022.7 707.744 1023.79 707.8C1025.24 707.859 1023.9 704.938 1027.68 706.626C1028.7 707.081 1028.82 708.037 1027.82 707.984L1027.83 707.946ZM1003.44 662.218C1003.31 662.365 1003.38 667.327 1000.27 664.193C998.921 662.851 998.997 662.354 1000.71 661.19C1003.03 659.613 1003.29 659.712 1003.44 662.218ZM905.363 494.199C906.001 497.076 905.79 497.561 903.727 498.011C898.057 499.266 903.414 485.302 905.363 494.199ZM899.535 480.624C897.437 477.566 902.545 473.452 903.358 478.98C903.378 479.064 903.384 479.124 903.395 479.246C903.447 479.278 903.508 479.272 903.56 479.304C903.62 479.555 907.211 480.784 903.675 481.961C903.639 482.882 903.157 482.829 902.037 482.372C898.386 483.106 898.373 481.798 899.535 480.624ZM990.572 614.893C989.467 618.118 979.897 611.21 980.262 610.147C980.842 608.502 981.916 610.432 987.759 612.441C990.565 613.389 990.94 613.733 990.557 614.87L990.572 614.893ZM953.725 550.572C954.369 550.781 954.379 551.93 952.575 551.354C950.531 550.701 951.981 548.289 952.879 548.596C954.016 548.979 952.908 550.343 953.702 550.587L953.725 550.572ZM877.775 441.539C878.398 439.706 874.322 440.994 876.328 437.465C877.022 436.262 877.154 435.185 876.674 435.034C875.448 434.611 871.944 428.319 877.076 430.064C878.505 430.554 879.206 431.369 878.907 432.23C878.591 433.165 879.399 433.946 881.42 434.612C888.625 437.056 875.665 447.733 877.79 441.562L877.775 441.539ZM872.592 422.458C870.747 422.485 870.881 419.094 872.197 419.558C873.641 420.071 873.627 416.805 875.276 416.772C875.73 416.779 876.503 422.396 872.578 422.435L872.592 422.458ZM1022.1 622.369C1021.89 623.882 1023.32 622.89 1023.05 624.825C1022.78 626.76 1024.29 625.369 1023.82 628.583C1023.51 630.766 1023.4 630.838 1021.25 630.538C1019.42 630.27 1019.03 629.963 1019.18 628.909C1019.45 627.073 1021.24 628.3 1021.42 626.899C1021.65 625.311 1020.14 626.739 1020.6 623.465C1021.07 620.251 1022.23 621.231 1022.09 622.346L1022.1 622.369ZM1070.37 609.683C1069.36 611.307 1068.94 611.249 1068.5 609.406C1067.56 605.529 1071.79 607.42 1070.37 609.683ZM1073.73 557.223C1073.73 557.223 1073.38 559.042 1071.7 558.295C1068.37 556.809 1075.38 553.532 1073.73 557.223ZM1123.5 581.292C1122.47 579.809 1123.93 579.317 1124.42 580.043C1125.01 580.893 1125.55 579.949 1125.93 580.513C1126.1 580.79 1124.66 583.006 1123.48 581.269L1123.5 581.292ZM1078.28 477.533C1078.35 478.162 1076.32 479.332 1076.65 479.766C1076.77 479.951 1076.39 480.476 1075.76 480.963C1072.88 483.18 1075.36 476.755 1076.34 478.033C1076.71 478.513 1078.22 476.866 1078.28 477.533ZM1087.15 431.812C1088.03 431.264 1088.37 430.314 1087.94 429.621C1086.96 428.049 1091.56 425.083 1090.89 427.617C1089.62 432.326 1081.75 446.992 1081.06 445.882C1080.14 444.403 1085.02 433.137 1087.15 431.812ZM1077.44 450.542C1077.33 449.488 1076.4 450.102 1076.32 449.411C1076.26 448.744 1079.67 448.35 1079.75 449.04C1079.84 449.852 1078.79 449.253 1078.9 450.405C1079.01 451.399 1077.54 451.573 1077.44 450.579L1077.44 450.542ZM1081.61 454.593C1080.53 452.859 1080.69 452.244 1082.4 451.178C1088.19 447.636 1085 460.148 1081.61 454.593ZM1136.04 499.284C1135.02 500.213 1134.39 500.247 1133.66 499.423C1132.22 497.844 1134.66 497.223 1133.57 495.98C1130.83 492.933 1139.09 496.55 1136.04 499.284ZM1095.39 417.686C1093.19 418.223 1101.56 402.189 1102.69 403.992C1103.41 405.148 1096.92 417.31 1095.39 417.686ZM1135.01 460.6C1132.67 459.878 1130.29 456.002 1132.18 455.947C1134.84 455.893 1132.94 451.457 1137.25 454.81C1139.32 456.438 1137.43 461.339 1135.01 460.6ZM1167.01 459.759C1167.16 460.149 1164.8 462.292 1163.94 459.937C1163.2 457.927 1165.02 457.756 1165.4 458.773C1165.84 459.943 1166.72 458.979 1167.01 459.759ZM1117.66 378.159C1115.21 381.289 1113.19 387.169 1110.64 389.245C1107.93 391.445 1111.38 382.457 1113.01 382.439C1113.76 382.417 1114.65 380.743 1115 378.629C1116.37 370.681 1120.55 374.498 1117.65 378.196L1117.66 378.159ZM1139.52 351.531C1137.69 354.408 1136.5 353.737 1135.52 349.337C1133.44 339.816 1142.09 347.521 1139.52 351.531ZM1185.77 383.506C1183.28 385.796 1180.01 382.248 1182.49 379.935C1182.71 380.184 1183.63 377.589 1185.92 380.078C1187.23 381.509 1187.23 382.182 1185.77 383.506ZM1168.55 344.484C1169.33 347.91 1157.41 347.378 1163 346.083C1165.02 345.623 1163.85 345.133 1164.71 343.474C1166.16 340.706 1165.8 343.53 1167.29 343.183C1167.85 343.056 1168.31 343.539 1168.51 344.475L1168.55 344.484ZM1129.85 352.807C1129.06 352.821 1129.93 349.899 1131.78 346.373C1139.07 332.618 1134.2 335.584 1149.43 313.508C1154.15 306.652 1154.13 306.054 1154.62 306.841C1155.25 307.858 1132.65 352.765 1129.85 352.807ZM1174.78 296.747C1175.48 298.333 1169.64 301.941 1168.17 298.555C1166.7 295.169 1170.16 295.872 1169.5 294.294C1169 293.13 1172.52 291.575 1173.06 292.748C1173.64 294.088 1175.92 292.027 1176.5 293.367C1177.09 294.731 1173.95 294.793 1174.8 296.732L1174.78 296.747Z" fill="#eae5d0"/>
</svg>
