<svg 
 xmlns="http://www.w3.org/2000/svg"
 xmlns:xlink="http://www.w3.org/1999/xlink"
 width="1028px" height="327px">
<path id="logo-path" fill="none" stroke="#000000" stroke-width="3"
 d="M1024.481,170.055 C1022.680,170.899 1020.098,173.239 1016.740,177.076 C1013.376,181.396 1009.595,187.337 1005.399,194.898 C1001.196,202.458 997.118,210.621 993.157,219.380 C989.197,228.145 985.895,237.084 983.256,246.203 C980.612,255.328 979.296,263.609 979.296,271.046 C979.296,277.048 980.072,280.890 981.636,282.567 C983.194,284.249 985.417,285.087 988.297,285.087 C990.935,285.087 993.697,284.491 996.578,283.287 C999.458,282.089 1001.736,281.487 1003.418,281.487 C1004.375,281.970 1005.157,282.989 1005.759,284.547 C1006.355,286.111 1006.659,287.489 1006.659,288.687 C1004.735,290.369 1002.456,292.051 999.818,293.728 C997.174,295.410 994.417,296.968 991.537,298.408 C988.657,299.849 985.833,301.047 983.076,302.009 C980.314,302.965 977.856,303.449 975.695,303.449 C968.731,303.449 963.032,302.425 958.594,300.389 C954.150,298.352 950.673,295.652 948.153,292.288 C945.632,288.929 943.888,284.907 942.932,280.226 C941.970,275.546 941.492,270.567 941.492,265.285 C941.492,262.405 941.728,259.164 942.212,255.564 C942.690,251.964 943.652,247.705 945.092,242.783 C946.532,237.866 948.569,231.982 951.213,225.141 C953.851,218.300 957.210,210.081 961.294,200.478 C960.810,200.478 957.570,202.160 951.573,205.519 C945.571,208.883 939.090,214.042 932.131,221.000 C920.846,231.801 910.709,242.484 901.708,253.044 C892.707,263.609 883.526,275.366 874.165,288.327 C868.883,295.770 864.264,302.065 860.304,307.229 C856.343,312.388 852.923,315.808 850.043,317.490 C845.002,314.610 841.278,310.588 838.881,305.429 C836.479,300.265 834.679,294.932 833.481,289.407 C833.481,284.851 834.139,279.090 835.461,272.126 C836.777,265.167 838.578,257.426 840.862,248.903 C843.140,240.386 845.958,231.441 849.322,222.080 C852.681,212.720 856.399,203.359 860.484,193.998 C869.603,172.879 877.945,156.317 885.506,144.312 C893.067,132.313 897.804,125.832 899.728,124.870 C905.966,126.794 911.845,131.053 917.369,137.652 C922.888,144.256 926.967,151.513 929.611,159.434 C926.967,165.915 922.888,173.717 917.369,182.836 C911.845,191.961 906.326,201.260 900.808,210.739 C895.283,220.224 890.305,229.225 885.866,237.742 C881.422,246.265 878.846,253.286 878.125,258.804 C881.962,254.726 886.226,249.983 890.907,244.583 C895.587,239.182 900.144,233.782 904.588,228.381 C909.027,222.981 913.167,218.064 917.009,213.620 C920.846,209.181 923.850,205.879 926.010,203.719 C930.567,198.920 935.968,193.339 942.212,186.977 C948.451,180.620 954.993,174.617 961.834,168.975 C968.675,163.338 975.572,158.534 982.536,154.574 C989.495,150.613 995.858,148.633 1001.618,148.633 C1007.857,148.633 1013.078,150.737 1017.280,154.934 C1021.477,159.136 1024.779,163.518 1027.181,168.075 C1027.181,168.559 1026.281,169.217 1024.481,170.055 ZM799.277,226.401 C796.397,235.762 794.175,244.527 792.617,252.684 C791.053,260.846 790.276,267.929 790.276,273.926 C790.276,280.648 790.996,286.229 792.437,290.668 C793.877,295.112 796.273,298.290 799.637,300.209 C796.757,302.127 793.033,303.685 788.476,304.889 C783.914,306.087 779.835,306.689 776.235,306.689 C763.274,306.689 756.793,297.812 756.793,280.046 C756.793,266.365 761.350,247.643 770.474,223.881 C765.670,234.873 760.151,245.213 753.913,254.889 C747.668,264.570 741.311,273.116 734.831,280.525 C728.350,287.934 721.807,293.970 715.209,298.628 C708.604,303.280 702.545,306.093 697.027,307.049 C688.144,307.049 680.943,303.010 675.424,294.937 C669.900,286.865 667.144,276.559 667.144,264.025 C667.144,250.529 670.024,236.308 675.785,221.366 C681.545,206.424 688.926,192.563 697.927,179.787 C706.928,167.012 716.705,156.346 727.270,147.789 C737.829,139.233 748.028,134.952 757.873,134.952 C760.270,135.672 762.970,137.112 765.974,139.266 C768.972,141.421 771.853,143.936 774.615,146.805 C777.371,149.679 779.711,152.610 781.635,155.603 C783.554,158.596 784.634,161.172 784.876,163.327 C775.273,164.767 765.372,169.436 755.173,177.335 C744.968,185.239 735.731,194.757 727.450,205.890 C719.169,217.029 712.385,228.938 707.108,241.629 C701.825,254.321 699.187,266.174 699.187,277.189 C699.187,281.740 700.863,284.614 704.227,285.807 C711.186,284.367 719.225,278.426 728.350,267.985 C737.469,257.544 748.512,241.404 761.473,219.560 C763.870,215.240 766.570,210.441 769.574,205.159 C772.573,199.882 775.633,194.358 778.755,188.597 C781.872,182.836 784.932,177.020 787.936,171.135 C790.935,165.256 793.753,159.558 796.397,154.033 C798.793,154.033 801.618,154.455 804.858,155.294 C808.098,156.137 811.035,157.218 813.679,158.534 C816.317,159.856 818.539,161.234 820.339,162.674 C822.140,164.115 823.040,165.437 823.040,166.635 C818.235,176.716 813.797,186.859 809.718,197.058 C805.634,207.263 802.158,217.040 799.277,226.401 ZM647.162,220.460 C642.239,233.062 636.540,245.005 630.060,256.284 C623.579,267.569 616.558,277.650 608.998,286.527 C601.437,295.410 593.572,302.667 585.415,308.309 C577.252,313.946 569.090,317.490 560.933,318.930 C544.371,317.007 531.708,311.668 522.949,302.909 C514.184,294.150 509.807,282.089 509.807,266.725 C509.807,258.568 511.068,249.685 513.588,240.082 C516.108,230.485 519.467,220.944 523.669,211.459 C527.865,201.980 532.788,192.737 538.430,183.737 C544.067,174.736 550.070,166.635 556.432,159.434 C562.789,152.233 569.214,146.113 575.694,141.072 C582.175,136.032 588.532,132.791 594.776,131.351 C599.575,131.351 605.093,132.791 611.338,135.672 C617.577,138.552 623.095,142.276 627.900,146.833 C626.696,137.235 625.199,128.173 623.399,119.650 C621.599,111.133 618.955,102.312 615.478,93.187 C611.996,84.068 607.377,74.105 601.617,63.304 C595.856,52.503 588.656,40.144 580.015,26.220 C580.735,24.060 582.355,21.540 584.875,18.659 C587.395,15.779 590.276,13.079 593.516,10.559 C596.756,8.038 600.115,5.822 603.597,3.898 C607.074,1.980 610.376,0.781 613.498,0.298 C620.215,7.740 626.578,17.039 632.580,28.200 C638.577,39.362 643.859,51.367 648.422,64.204 C652.978,77.047 656.523,90.307 659.043,103.988 C661.563,117.670 662.823,130.755 662.823,143.232 C662.823,155.716 661.439,168.559 658.683,181.756 C655.921,194.960 652.078,207.859 647.162,220.460 ZM628.620,156.194 C628.620,155.237 628.496,154.275 628.260,153.313 C622.499,155.716 616.378,159.794 609.898,165.555 C603.417,171.315 596.936,177.976 590.456,185.537 C583.975,193.097 577.854,201.322 572.094,210.199 C566.333,219.082 561.169,227.965 556.612,236.842 C552.050,245.725 548.450,254.248 545.811,262.405 C543.167,270.567 541.851,277.768 541.851,284.007 C541.851,296.012 547.251,302.847 558.052,304.529 C566.451,301.649 574.850,295.292 583.255,285.447 C591.654,275.608 599.215,264.025 605.937,250.703 C612.654,237.382 618.117,223.104 622.319,207.859 C626.516,192.619 628.620,177.920 628.620,163.754 C628.620,159.676 628.620,157.156 628.620,156.194 ZM475.604,226.401 C472.724,235.762 470.501,244.527 468.943,252.684 C467.379,260.846 466.603,267.929 466.603,273.926 C466.603,280.648 467.323,286.229 468.763,290.668 C470.203,295.112 472.600,298.290 475.964,300.209 C473.084,302.127 469.359,303.685 464.803,304.889 C460.240,306.087 456.162,306.689 452.561,306.689 C439.600,306.689 433.119,297.812 433.119,280.046 C433.119,266.365 437.676,247.643 446.801,223.881 C441.997,234.873 436.478,245.213 430.239,254.889 C423.995,264.570 417.638,273.116 411.157,280.525 C404.677,287.934 398.134,293.970 391.535,298.628 C384.931,303.280 378.872,306.093 373.353,307.049 C364.471,307.049 357.270,303.010 351.751,294.937 C346.227,286.865 343.470,276.559 343.470,264.025 C343.470,250.529 346.351,236.308 352.111,221.366 C357.872,206.424 365.252,192.563 374.253,179.787 C383.254,167.012 393.032,156.346 403.596,147.789 C414.156,139.233 424.355,134.952 434.200,134.952 C436.596,135.672 439.296,137.112 442.300,139.266 C445.299,141.421 448.179,143.936 450.941,146.805 C453.698,149.679 456.038,152.610 457.962,155.603 C459.880,158.596 460.960,161.172 461.202,163.327 C451.600,164.767 441.699,169.436 431.499,177.335 C421.295,185.239 412.057,194.757 403.776,205.890 C395.496,217.029 388.711,228.938 383.434,241.629 C378.152,254.321 375.514,266.174 375.514,277.189 C375.514,281.740 377.190,284.614 380.554,285.807 C387.513,284.367 395.552,278.426 404.677,267.985 C413.796,257.544 424.839,241.404 437.800,219.560 C440.196,215.240 442.897,210.441 445.901,205.159 C448.899,199.882 451.960,194.358 455.082,188.597 C458.198,182.836 461.259,177.020 464.263,171.135 C467.261,165.256 470.080,159.558 472.724,154.033 C475.120,154.033 477.944,154.455 481.184,155.294 C484.425,156.137 487.361,157.218 490.005,158.534 C492.644,159.856 494.866,161.234 496.666,162.674 C498.466,164.115 499.366,165.437 499.366,166.635 C494.562,176.716 490.123,186.859 486.045,197.058 C481.961,207.263 478.484,217.040 475.604,226.401 ZM316.647,168.795 C312.687,190.397 309.683,211.819 307.647,233.062 C305.604,254.304 304.586,273.330 304.586,290.128 C304.586,295.652 304.586,301.407 304.586,307.409 C304.586,313.406 304.822,319.651 305.306,326.131 C301.942,326.131 297.926,325.709 293.245,324.871 C288.565,324.027 284.002,322.891 279.564,321.451 C275.119,320.011 271.103,318.390 267.502,316.590 C263.902,314.790 261.382,312.810 259.942,310.650 C259.700,307.286 259.582,303.809 259.582,300.209 C259.582,296.608 259.582,293.132 259.582,289.767 C259.582,262.888 261.562,234.806 265.522,205.519 C269.483,176.238 276.020,144.554 285.144,110.469 C286.101,107.110 287.181,102.548 288.385,96.788 C289.583,91.027 290.781,85.030 291.985,78.786 C285.262,82.150 277.640,88.569 269.123,98.048 C260.600,107.532 251.959,119.054 243.200,132.611 C234.435,146.175 225.794,161.234 217.277,177.796 C208.754,194.358 201.076,211.223 194.235,228.381 C187.394,245.545 181.634,262.585 176.953,279.506 C172.273,296.428 169.449,311.966 168.492,326.131 C168.008,326.367 167.530,326.491 167.052,326.491 C166.568,326.491 165.612,326.491 164.172,326.491 C160.808,326.491 156.909,325.951 152.471,324.871 C148.026,323.791 143.706,322.469 139.509,320.911 C135.307,319.347 131.707,317.608 128.708,315.690 C125.704,313.766 123.848,312.090 123.127,310.650 C122.886,307.286 122.767,303.809 122.767,300.209 C122.767,296.608 122.767,293.132 122.767,289.767 C122.767,262.888 124.748,234.806 128.708,205.519 C132.668,176.238 139.205,144.554 148.330,110.469 C149.286,107.110 150.310,102.852 151.390,97.688 C152.471,92.529 153.607,86.948 154.811,80.946 C149.050,85.508 142.209,92.771 134.289,102.728 C126.368,112.691 118.025,124.454 109.266,138.012 C100.501,151.575 91.742,166.455 82.983,182.656 C74.219,198.858 66.242,215.302 59.041,231.982 C51.840,248.667 45.658,265.167 40.499,281.487 C35.335,297.812 32.156,312.928 30.958,326.851 C19.437,323.487 11.454,320.129 7.016,316.770 C2.571,313.406 0.355,309.328 0.355,304.529 C0.355,300.209 1.671,294.088 4.315,286.167 C6.954,278.246 10.672,268.885 15.476,258.084 C20.275,247.283 26.154,235.222 33.118,221.900 C40.077,208.579 47.756,194.239 56.161,178.876 C65.758,161.358 75.181,144.914 84.424,129.551 C93.661,114.193 102.724,100.270 111.606,87.787 C120.483,75.309 129.186,64.508 137.709,55.383 C146.226,46.264 154.687,39.305 163.092,34.501 C166.450,34.501 170.951,35.345 176.593,37.021 C182.230,38.703 187.754,40.746 193.155,43.142 C198.555,45.544 203.354,48.003 207.556,50.523 C211.753,53.043 214.093,55.147 214.577,56.823 C211.213,63.546 207.252,73.627 202.696,87.067 C198.133,100.512 193.515,115.751 188.834,132.791 C184.154,149.837 179.710,167.895 175.513,186.977 C171.311,206.059 168.008,224.364 165.612,241.883 C171.131,228.685 177.549,214.942 184.874,200.658 C192.193,186.381 199.934,172.215 208.096,158.174 C216.253,144.132 224.596,130.513 233.119,117.310 C241.636,104.112 249.979,92.051 258.141,81.126 C266.299,70.207 273.921,60.666 281.004,52.503 C288.081,44.346 294.381,38.343 299.906,34.501 C303.264,34.501 307.765,35.345 313.407,37.021 C319.044,38.703 324.568,40.746 329.969,43.142 C335.369,45.544 340.168,48.003 344.370,50.523 C348.567,53.043 350.907,55.147 351.391,56.823 C343.706,70.505 336.990,87.190 331.229,106.869 C325.468,126.552 320.608,147.193 316.647,168.795 Z"/>
</svg>